<svg xmlns="http://www.w3.org/2000/svg" viewBox="350 440 3950 940" fill="none">
  <path transform="translate(0,0)" fill="#E11D48" d="M 1222.27 564.89 C 1223.8 567.565 1223.95 568.588 1226.68 569.871 C 1229.51 569.218 1229.46 568.912 1231.75 566.997 L 1233.75 571.051 C 1230.53 574.92 1227.82 578.089 1224.98 582.3 C 1247.37 580.949 1277.11 581.699 1300.04 581.701 L 1429.89 581.73 L 1620.2 581.779 C 1652.21 581.801 1687.4 581.112 1719.21 581.99 C 1707.83 595.876 1688.09 615.373 1675.27 628.712 C 1647.22 657.893 1619.02 686.924 1590.67 715.806 L 1338.49 971.865 L 1260.56 1050.98 C 1252.54 1059.18 1228.9 1082.72 1223.06 1090.93 C 1242.19 1088.89 1287.84 1089.71 1308.76 1090 C 1343.98 1090.5 1385.01 1088.71 1419.32 1090.19 C 1426.33 1095.47 1513.81 1086.74 1525.37 1093.85 L 1520.2 1094.45 C 1545.41 1096.47 1575.68 1095.09 1601.14 1095.28 C 1607.49 1095.32 1616.67 1093.29 1623.02 1093.22 C 1636.41 1093.05 1650.62 1092.56 1663.96 1092.86 L 1664.14 1093.58 L 1661.75 1095.2 C 1668.18 1097.54 1677.51 1093.27 1684.96 1093.6 L 1684.27 1093.96 C 1691.33 1094.21 1692.81 1093.2 1698.71 1097.12 C 1678.88 1123.76 1647.1 1158.93 1625.19 1184.71 C 1606.69 1206.48 1575.15 1245.68 1555.7 1264.49 C 1536.34 1265.41 1511.76 1264.74 1491.82 1264.72 L 1370.58 1264.59 L 1039.12 1264.61 C 980.632 1264.58 919.395 1263.79 861.203 1264.81 C 882.721 1240.31 906.143 1216.17 928.511 1192.39 C 971.218 1146.74 1014.35 1101.5 1057.91 1056.67 C 1134.21 976.906 1211.17 897.78 1288.78 819.296 L 1297.12 810.383 C 1313.79 793.607 1330.31 776.696 1346.69 759.65 C 1254.08 760.907 1158.97 759.779 1066.08 760.01 C 1063 762.504 1060.25 764.908 1057.29 767.542 C 1044.87 778.611 1018.14 805.443 1006.5 813.727 L 1004.08 810.745 C 1014.97 795.904 1034.2 774.863 1046.96 761.389 C 1059.05 745.632 1086.47 716.721 1100.31 701.222 L 1222.27 564.89 z"/>
  <path transform="translate(0,0)" fill="#E11D48" d="M 1297.12 810.383 L 1300.91 811.629 C 1302.2 817.275 1297.92 820.035 1293.36 822.045 C 1290.81 821.271 1290.86 821.053 1288.78 819.296 L 1297.12 810.383 z"/>
  <path transform="translate(0,0)" fill="#E11D48" d="M 644.872 1262.02 C 640.25 1261.59 635.647 1260.97 631.076 1260.16 C 505.116 1238.34 399.75 1139.25 388.271 1006.47 C 385.906 979.109 388.412 948.253 387.705 920.534 C 386.946 890.747 386.814 859.157 391.457 829.826 C 405.553 751.394 451.945 684.402 517.328 639.67 C 558.226 612.244 604.48 593.813 653.032 585.598 C 688.396 579.545 750.056 581.643 788.171 581.655 L 1002 581.676 L 1097.42 581.773 C 1105.7 581.77 1135.88 581.168 1142.73 582.446 C 1142.09 588.788 1066.19 670.628 1055.57 682.167 C 1033.93 705.673 1008.04 735.895 985.995 759.014 L 783.775 759.068 C 746.549 759.08 700.628 756.553 665.015 762.903 C 609.597 772.784 564.833 821.253 564.51 878.397 C 564.355 905.77 564.519 934.572 564.526 962.057 C 561.727 1023.47 593.81 1072.14 654.912 1086.16 C 670.584 1089.99 686.206 1089.84 702.146 1090.05 C 781.898 1091.11 862.301 1088.4 942.001 1090.51 C 947.954 1086.49 957.942 1077.97 963.881 1073.23 C 965.545 1078.31 965.429 1076.15 963.711 1081.56 C 967.677 1082.48 965.365 1078.26 970.955 1081.19 C 959.987 1093.99 945.13 1108.87 933.247 1121.26 L 866.882 1190.18 C 833.182 1225.15 796.209 1266.44 762.06 1299.77 C 759.479 1298.49 756.467 1295.62 754.466 1293.55 C 758.834 1288.25 775.767 1269.68 775.457 1264.5 C 770.632 1263.15 766.562 1262.69 761.631 1261.98 L 763.331 1261.91 C 740.474 1258.94 701.759 1261.16 677.752 1261.21 C 668.193 1261.23 654.239 1261.28 644.872 1262.02 z"/>
  <path transform="translate(0,0)" fill="#E11D48" d="M 1419.32 1090.19 C 1432.76 1089.92 1446.3 1089.85 1459.73 1090.01 C 1541.1 1091 1622.96 1088.79 1704.27 1090.06 C 1703.09 1091.66 1700.04 1096.12 1698.71 1097.12 C 1692.81 1093.2 1691.33 1094.21 1684.27 1093.96 L 1684.96 1093.6 C 1677.51 1093.27 1668.18 1097.54 1661.75 1095.2 L 1664.14 1093.58 L 1663.96 1092.86 C 1650.62 1092.56 1636.41 1093.05 1623.02 1093.22 C 1616.67 1093.29 1607.49 1095.32 1601.14 1095.28 C 1575.68 1095.09 1545.41 1096.47 1520.2 1094.45 L 1525.37 1093.85 C 1513.81 1086.74 1426.33 1095.47 1419.32 1090.19 z"/>
  <path transform="translate(0,0)" fill="#E11D48" d="M 1290.86 488.273 L 1293.3 491.675 L 1233.75 571.051 L 1231.75 566.997 C 1229.46 568.912 1229.51 569.218 1226.68 569.871 C 1223.95 568.588 1223.8 567.565 1222.27 564.89 L 1226.32 560.447 C 1248.06 536.792 1268.9 512.099 1290.86 488.273 z"/>
  <path transform="translate(0,0)" fill="#E11D48" d="M 963.881 1073.23 C 966.891 1068.61 1003.03 1039.18 1008.7 1035.04 L 1009.32 1037.55 L 1008.42 1038.61 C 1006.11 1041.42 1004.77 1042.49 1004.17 1046.05 C 1001.21 1050.05 974.914 1078.6 970.955 1081.19 C 965.365 1078.26 967.677 1082.48 963.711 1081.56 C 965.429 1076.15 965.545 1078.31 963.881 1073.23 z"/>
  <path transform="translate(0,0)" fill="#E11D48" d="M 644.872 1262.02 C 654.239 1261.28 668.193 1261.23 677.752 1261.21 C 701.759 1261.16 740.474 1258.94 763.331 1261.91 L 761.631 1261.98 C 766.562 1262.69 770.632 1263.15 775.457 1264.5 C 749.603 1265.69 722.798 1264.49 696.864 1264.86 C 679.97 1265.1 661.475 1264.68 644.872 1262.02 z"/>
  <path transform="translate(0,0)" fill="#E11D48" d="M 715.306 1342.75 C 727.904 1325.99 740.963 1309.59 754.466 1293.55 C 756.467 1295.62 759.479 1298.49 762.06 1299.77 C 752.793 1309.64 743.818 1318.63 734.08 1328.04 C 731.161 1330.86 720.511 1341.04 718.391 1343.84 L 715.306 1342.75 z"/>
  <path transform="translate(0,0)" fill="#E11D48" d="M 1290.86 488.273 C 1296.23 481.707 1302.39 474.558 1308.81 469.059 L 1309.57 469.168 C 1305.36 476.357 1298.47 484.888 1293.3 491.675 L 1290.86 488.273 z"/>
  <path transform="translate(0,0)" fill="#E11D48" d="M 1017.84 1027.06 L 1020.55 1029.06 C 1015.79 1034.25 1009.35 1041.67 1004.17 1046.05 C 1004.77 1042.49 1006.11 1041.42 1008.42 1038.61 L 1009.32 1037.55 L 1008.7 1035.04 C 1010.75 1032.57 1015.19 1029.23 1017.84 1027.06 z"/>
  <path transform="translate(0,0)" fill="#E11D48" d="M 988.908 828.656 C 993.964 822.799 998.693 816.014 1004.08 810.745 L 1006.5 813.727 C 1002.87 818.212 993.779 825.364 988.908 828.656 z"/>
  <path transform="translate(0,0)" fill="#E11D48" d="M 1031.82 1015.57 C 1027.76 1021 1025.18 1024.09 1020.55 1029.06 L 1017.84 1027.06 C 1022.61 1022.93 1026.82 1019.42 1031.82 1015.57 z"/>
  <path transform="translate(0,0)" fill="#E11D48" d="M 715.306 1342.75 L 718.391 1343.84 C 715.705 1346.75 712.763 1350.77 709.041 1351.05 C 709.827 1347.93 712.97 1345.22 715.306 1342.75 z"/>
  <g transform="translate(1152.0, -1858.3000000000002) scale(1.8)">
    <path transform="translate(0,0)" fill="#F8FAFC" d="M 931.264 1457.46 C 961.003 1456.62 993.457 1457.25 1023.49 1457.26 C 1049.47 1458.53 1078.45 1454.4 1103.83 1460.18 C 1141.12 1468.68 1168.56 1501.72 1170.18 1539.92 C 1170.66 1551.43 1170.05 1563.04 1170.49 1574.2 C 1171.69 1605.09 1168.41 1633.59 1146.5 1657.34 C 1129.55 1675.84 1106.77 1685.17 1081.75 1686.33 C 1051.96 1687.12 1019.75 1686.36 989.613 1686.48 C 965.658 1684.69 932.758 1689.98 909.879 1683.78 C 850.786 1667.78 839.511 1619.95 842.593 1565.57 C 844.387 1533.91 840.288 1512.89 864.677 1486.66 C 883.444 1466.48 904.921 1458.6 931.264 1457.46 z M 1071.16 1621.25 C 1101.51 1610.66 1095.03 1588.72 1096.21 1562.55 C 1097.12 1542.21 1092.42 1521.32 1067.53 1520.14 C 1025.7 1520.64 981.875 1518.33 939.962 1520.4 C 930.733 1523.68 923.34 1528.58 919.215 1537.81 C 914.057 1549.35 914.261 1591.88 918.966 1603.49 C 922.086 1611.19 928.929 1617.19 936.657 1620.01 C 946.107 1623.47 1056.31 1622.96 1071.16 1621.25 z"/>
  <path transform="translate(0,0)" fill="#F8FAFC" d="M 480.351 1425.49 C 553.211 1425.54 626.721 1426.42 699.502 1425.57 C 684.628 1444.62 665.925 1471.27 652.431 1491.43 C 614.751 1490.65 577.668 1490.89 538.912 1491.01 C 492.061 1492.11 440.174 1479.35 440.771 1546.66 C 441.013 1573.95 435.766 1612.98 472.66 1620.75 C 485.47 1623.45 509.858 1621.97 523.606 1621.96 L 622.5 1621.88 L 699.473 1621.75 C 684.28 1642.15 667.953 1666.74 652.972 1687.8 L 531.385 1687.68 C 484.688 1687.7 432.42 1694.9 396.329 1659.31 C 374.518 1637.8 364.751 1612.39 364.47 1582.05 C 364.06 1537.65 359.781 1491.82 394.129 1457.66 C 418.935 1432.56 446.705 1426.08 480.351 1425.49 z"/>
  <path transform="translate(0,0)" fill="#F8FAFC" d="M 1206.65 1457.72 L 1476.51 1457.68 C 1463.21 1470.17 1447.53 1487.39 1434.47 1500.69 L 1348.57 1587.76 C 1335.29 1601.27 1318.5 1619.44 1304.62 1631.85 C 1340.17 1619.89 1353.25 1621.83 1390.47 1621.85 L 1481.34 1621.82 C 1472.79 1632.88 1463.27 1648.13 1455.16 1660.05 L 1437.6 1686.33 L 1250.05 1686.33 L 1194.34 1686.27 C 1183.27 1686.26 1167.71 1685.83 1157.01 1687.21 C 1169.79 1676.72 1192.69 1652.42 1205.06 1640.01 L 1284.64 1560.58 C 1299.32 1545.94 1316.32 1528 1331.45 1514.42 C 1299.76 1521.27 1241.76 1518.29 1206.7 1518.64 L 1206.65 1457.72 z"/>
  <path transform="translate(0,0)" fill="#F8FAFC" d="M 1665.66 1457.5 C 1688.58 1457.77 1711.49 1457.73 1734.41 1457.39 C 1719.37 1479.19 1706.42 1500.26 1692.49 1522.79 C 1675.4 1522.61 1624.62 1520.87 1611.26 1524.27 C 1605.42 1525.7 1600.1 1528.72 1595.86 1532.97 C 1581.56 1547.16 1585.42 1578.84 1585.44 1598.24 L 1585.54 1687.01 C 1575.96 1686.36 1564.49 1686.62 1554.75 1686.61 C 1540.15 1686.58 1525.52 1686.42 1510.94 1687.03 C 1511.42 1678.51 1511.29 1668.79 1511.21 1660.19 C 1510.62 1592.96 1512.64 1525.08 1510.97 1457.91 C 1535.69 1458.08 1560.42 1458.04 1585.14 1457.78 C 1585.19 1468.24 1585.05 1478.69 1584.7 1489.14 C 1587.51 1484.33 1590.93 1479.89 1594.87 1475.95 C 1615.87 1454.95 1638.15 1457.46 1665.66 1457.5 z"/>
  <path transform="translate(0,0)" fill="#F8FAFC" d="M 797.292 1380.76 L 798.15 1381.01 C 799.607 1383.85 798.91 1656 798.777 1687.15 C 777.566 1686.33 748.422 1686.28 727.258 1686.99 C 725.318 1683.68 726.261 1444.78 726.557 1418.75 C 748.158 1407.39 777.44 1394.04 797.292 1380.76 z"/>
  </g>
</svg>